# xmcd
# 
# Track frame offsets:
#     150
#     18914
#     38317
#     58430
#     75826
#     98566
#     120303
#     133957
#     152426
#     168116
#     187339
#     209929
#     227723
# 
# Disc length: 3218
# 
# Revision: 1
# Processed by: cddbd v1.5.2PL0 Copyright (c) Steve Scherf et al.
# Submitted via: fre:ac v1.1beta1pre4
# 
DISCID=a20c900d
DTITLE=Carin Mari and Pony Express - Life Love Legends
DYEAR=0
DGENRE=Country
TTITLE0=Always A Road
TTITLE1=Ridin' Down the Canyon
TTITLE2=Coyotes
TTITLE3=Fire and Rain
TTITLE4=Echoes of the Trail
TTITLE5=McGee Creek
TTITLE6=Cowboys and Rodeos
TTITLE7=Early
TTITLE8=Juaquima to Fresno
TTITLE9=Pretty Nights
TTITLE10=The Bandit Joaquim
TTITLE11=Someday Soon
TTITLE12=I Want to be a Cowboy's Sweetheart
EXTD=
EXTT0=
EXTT1=
EXTT2=
EXTT3=
EXTT4=
EXTT5=
EXTT6=
EXTT7=
EXTT8=
EXTT9=
EXTT10=
EXTT11=
EXTT12=
PLAYORDER=
